<?xml version="1.0" standalone="no"?>
<!DOCTYPE svg PUBLIC "-//W3C//DTD SVG 20010904//EN"
 "http://www.w3.org/TR/2001/REC-SVG-20010904/DTD/svg10.dtd">
<svg version="1.0" xmlns="http://www.w3.org/2000/svg"
 width="208.000000pt" height="208.000000pt" viewBox="0 0 208.000000 208.000000"
 preserveAspectRatio="xMidYMid meet">
<metadata>
Created by potrace 1.11, written by Peter Selinger 2001-2013
</metadata>
<g transform="translate(0.000000,208.000000) scale(0.100000,-0.100000)"
fill="#000000" stroke="none">
<path d="M944 1600 c-18 -4 -47 -18 -65 -31 -95 -66 -296 -219 -313 -238 -17
-19 -18 -22 -2 -46 24 -37 74 -59 136 -59 63 0 119 23 208 88 85 62 109 76
130 76 12 0 44 -28 78 -67 32 -38 61 -70 64 -73 3 -3 50 -57 105 -120 55 -63
102 -117 105 -120 3 -3 34 -39 70 -80 36 -41 80 -91 98 -111 18 -20 39 -44 45
-54 11 -15 17 -15 55 -3 37 11 42 17 43 43 1 39 1 576 0 591 -1 6 -58 26 -128
44 -91 24 -160 50 -240 91 -61 31 -134 62 -163 68 -57 12 -178 13 -226 1z"/>
<path d="M102 1533 c-10 -22 -9 -963 1 -980 11 -18 228 -18 245 -1 17 17 17
969 0 986 -8 8 -50 12 -125 12 -97 0 -113 -2 -121 -17z"/>
<path d="M1772 1542 c-10 -7 -12 -114 -10 -503 l3 -494 125 0 125 0 3 494 c2
389 0 496 -10 503 -7 4 -60 8 -118 8 -58 0 -111 -4 -118 -8z"/>
<path d="M609 1477 c-31 -19 -66 -41 -80 -50 -14 -10 -43 -17 -70 -17 l-46 0
-1 -300 c0 -275 1 -300 16 -300 31 0 89 -38 223 -145 206 -166 289 -218 330
-208 32 8 69 42 69 64 0 16 3 15 37 -2 69 -35 143 -14 143 41 0 24 4 25 36 4
13 -9 43 -17 65 -18 46 -1 69 20 69 65 l0 27 64 -5 c55 -5 66 -3 85 16 43 43
30 75 -77 197 -53 60 -122 139 -152 174 -176 205 -273 310 -284 310 -8 0 -47
-24 -87 -54 -101 -73 -152 -97 -221 -103 -105 -10 -207 40 -226 110 -14 51 9
81 136 179 28 22 52 42 52 44 0 12 -33 0 -81 -29z"/>
</g>
</svg>
